<?xml version="1.0" encoding="iso-8859-1"?>
<!-- Generator: Adobe Illustrator 17.1.0, SVG Export Plug-In . SVG Version: 6.00 Build 0)  -->
<!DOCTYPE svg PUBLIC "-//W3C//DTD SVG 1.1//EN" "http://www.w3.org/Graphics/SVG/1.1/DTD/svg11.dtd">
<svg version="1.1" id="Layer_1" xmlns="http://www.w3.org/2000/svg" xmlns:xlink="http://www.w3.org/1999/xlink" x="0px" y="0px"
	 width="24.688px" height="19.184px" viewBox="0 0 24.688 19.184" enable-background="new 0 0 24.688 19.184" xml:space="preserve">
<g>
	<g>
		<g>
			<path fill="none" stroke="#F7F8F9" stroke-width="1.525" stroke-miterlimit="10" d="M22.542,15.723
				c0,0.607-0.404,1.011-1.011,1.011H3.533c-0.607,0-1.011-0.404-1.011-1.011V6.421c0-0.607,0-1.415,0-1.82V2.983
				c0-0.607,0.404-1.011,1.011-1.011H21.53c0.607,0,1.011,0.404,1.011,1.011v1.618c0,0.607,0,1.415,0,1.82V15.723z"/>
		</g>
		<line fill="none" stroke="#F7F8F9" stroke-width="1.525" stroke-miterlimit="10" x1="22.542" y1="5.41" x2="2.724" y2="5.41"/>
		<circle fill="#F7F8F9" cx="19.306" cy="3.994" r="0.607"/>
		<circle fill="#F7F8F9" cx="20.519" cy="3.994" r="0.607"/>
		<polygon fill="#F7F8F9" points="10.61,8.443 12.633,12.892 13.442,12.083 14.453,12.892 15.059,12.083 14.25,11.274 
			15.262,10.061 		"/>
	</g>
</g>
</svg>
