<?xml version="1.0" encoding="iso-8859-1"?>
<!-- Generator: Adobe Illustrator 17.1.0, SVG Export Plug-In . SVG Version: 6.00 Build 0)  -->
<!DOCTYPE svg PUBLIC "-//W3C//DTD SVG 1.1//EN" "http://www.w3.org/Graphics/SVG/1.1/DTD/svg11.dtd">
<svg version="1.1" id="Layer_1" xmlns="http://www.w3.org/2000/svg" xmlns:xlink="http://www.w3.org/1999/xlink" x="0px" y="0px"
	 width="16.333px" height="19.563px" viewBox="0 0 16.333 19.563" enable-background="new 0 0 16.333 19.563" xml:space="preserve">
<g>
	<g>
		<g opacity="0.05" enable-background="new    ">
			<g>
				<defs>
					<circle id="SVGID_30_" cx="7.928" cy="10.103" r="16.178"/>
				</defs>
				<clipPath id="SVGID_2_">
					<use xlink:href="#SVGID_30_"  overflow="visible"/>
				</clipPath>
			</g>
		</g>
	</g>
	<path fill="#F9F9F9" d="M11.77,1.003H3.074c-0.607,0-1.011,0.404-1.011,1.011v15.167c0,0.607,0.404,1.011,1.011,1.011h10.718
		c0.607,0,1.011-0.404,1.011-1.011V4.239L11.77,1.003z M11.972,2.621l1.416,1.415h-1.416V2.621z M13.792,17.383
		C13.792,17.383,13.792,17.585,13.792,17.383l-10.92,0.202c0,0-0.202,0-0.202-0.202V2.217c0,0,0-0.202,0.202-0.202h8.089v2.629
		c0,0.202,0.202,0.404,0.404,0.404h2.427V17.383z M4.49,5.856h7.684c0.202,0,0.404,0.202,0.404,0.404
		c0,0.202-0.202,0.404-0.404,0.404H4.49c-0.202,0-0.404-0.202-0.404-0.404C4.086,6.059,4.288,5.856,4.49,5.856z M12.377,8.485
		c0,0.202-0.202,0.404-0.404,0.404H4.288c-0.202,0-0.404-0.202-0.404-0.404s0.202-0.404,0.404-0.404h7.684
		C12.174,8.081,12.377,8.283,12.377,8.485z M12.377,10.508c0,0.202-0.202,0.404-0.404,0.404H4.288c-0.202,0-0.404-0.202-0.404-0.404
		s0.202-0.404,0.404-0.404h7.684C12.174,10.306,12.377,10.508,12.377,10.508z M12.377,12.732c0,0.202-0.202,0.404-0.404,0.404H4.288
		c-0.202,0-0.404-0.202-0.404-0.404s0.202-0.404,0.404-0.404h7.684C12.174,12.53,12.377,12.53,12.377,12.732z"/>
</g>
</svg>
