<?xml version="1.0" encoding="utf-8"?>
<!-- Generator: Adobe Illustrator 16.0.0, SVG Export Plug-In . SVG Version: 6.00 Build 0)  -->
<!DOCTYPE svg PUBLIC "-//W3C//DTD SVG 1.1//EN" "http://www.w3.org/Graphics/SVG/1.1/DTD/svg11.dtd">
<svg version="1.1" id="Layer_1" xmlns="http://www.w3.org/2000/svg" xmlns:xlink="http://www.w3.org/1999/xlink" x="0px" y="0px"
	 width="21.906px" height="20.25px" viewBox="0 0 21.906 20.25" enable-background="new 0 0 21.906 20.25" xml:space="preserve">
<g>
	<g>
		<path fill="#F9F9F9" d="M14.038,19.344H5.444C4.594,19.344,4,18.748,4,17.9V2.349C4,1.5,4.594,0.906,5.444,0.906h8.593
			c0.85,0,1.444,0.594,1.444,1.443v3.074h-0.84V2.349c0-0.383-0.221-0.604-0.604-0.604H5.444c-0.384,0-0.604,0.221-0.604,0.604V17.9
			c0,0.383,0.219,0.604,0.604,0.604h8.593c0.384,0,0.604-0.221,0.604-0.604v-4.201h0.84V17.9
			C15.481,18.748,14.886,19.344,14.038,19.344z"/>
	</g>
</g>
<g>
	<rect x="4.42" y="3.301" fill="#F9F9F9" width="10.641" height="0.96"/>
</g>
<g>
	<rect x="4.011" y="15.578" fill="#F9F9F9" width="11.05" height="0.961"/>
</g>
<g>
	<circle fill="#F9F9F9" cx="9.74" cy="17.471" r="0.426"/>
</g>
<g>
	<path fill="#F9F9F9" d="M11.69,15.016L11.69,15.016c-0.824,0-1.554-0.563-1.635-0.627l-0.686-0.551l0.833-0.281
		c0.26-0.088,0.563-0.227,0.632-0.295c0.014-0.039,0.044-0.256,0.057-0.484c-1.139-1.148-1.564-2.759-1.137-4.354
		c0.369-1.379,1.286-2.421,2.337-2.656c0.563-0.189,1.758-0.428,3.115-0.428c3.593,0,5.653,1.596,5.653,4.376
		c0,2.705-2.096,4.257-5.747,4.257c-0.581,0-1.055-0.041-1.323-0.07c-0.252,0.227-0.759,0.639-1.378,0.949
		C12.192,14.959,11.951,15.016,11.69,15.016z M11.425,14.02c0.202,0.051,0.403,0.049,0.559-0.027
		c0.733-0.367,1.301-0.928,1.307-0.934l0.171-0.172l0.239,0.037c0.006,0,0.601,0.09,1.415,0.09c2.184,0,4.788-0.572,4.788-3.297
		c0-2.822-2.553-3.416-4.693-3.416c-1.242,0-2.317,0.212-2.86,0.393c-0.73,0.164-1.398,0.973-1.667,1.979
		c-0.169,0.632-0.408,2.245,1.022,3.555l0.153,0.143v0.211c0,0.463-0.059,1.078-0.344,1.363
		C11.485,13.969,11.457,13.994,11.425,14.02z"/>
</g>
</svg>
