<?xml version="1.0" encoding="utf-8"?>
<!-- Generator: Adobe Illustrator 16.0.0, SVG Export Plug-In . SVG Version: 6.00 Build 0)  -->
<!DOCTYPE svg PUBLIC "-//W3C//DTD SVG 1.1//EN" "http://www.w3.org/Graphics/SVG/1.1/DTD/svg11.dtd">
<svg version="1.1" id="Layer_1" xmlns="http://www.w3.org/2000/svg" xmlns:xlink="http://www.w3.org/1999/xlink" x="0px" y="0px"
	 width="18.168px" height="18.688px" viewBox="0 0 18.168 18.688" enable-background="new 0 0 18.168 18.688" xml:space="preserve">
<g>
	<g>
		<path fill="#F9F9F9" d="M8.785,17.459c-4.266,0-7.869-3.603-7.869-7.868c0-4.267,3.604-7.871,7.869-7.871h0.468v7.402h7.402v0.469
			C16.655,13.857,13.051,17.459,8.785,17.459z M8.315,2.675C4.767,2.926,1.853,5.991,1.853,9.59c0,3.759,3.173,6.933,6.932,6.933
			c3.6,0,6.665-2.914,6.916-6.463H8.315V2.675z"/>
	</g>
	<g>
		<path fill="#F9F9F9" d="M18.254,8.573H9.916v-8.34h0.471c4.266,0,7.868,3.604,7.868,7.871V8.573L18.254,8.573z M10.856,7.635
			h6.443c-0.24-3.396-3.052-6.208-6.443-6.448V7.635z"/>
	</g>
</g>
</svg>
