<?xml version="1.0" encoding="iso-8859-1"?>
<!-- Generator: Adobe Illustrator 17.1.0, SVG Export Plug-In . SVG Version: 6.00 Build 0)  -->
<!DOCTYPE svg PUBLIC "-//W3C//DTD SVG 1.1//EN" "http://www.w3.org/Graphics/SVG/1.1/DTD/svg11.dtd">
<svg version="1.1" id="Layer_1" xmlns="http://www.w3.org/2000/svg" xmlns:xlink="http://www.w3.org/1999/xlink" x="0px" y="0px"
	 width="21.478px" height="23.083px" viewBox="0 0 21.478 23.083" enable-background="new 0 0 21.478 23.083" xml:space="preserve">
<g>
	<g>
		<path fill="#F9F9F9" d="M3.832,1.298v20.02h13.953V1.298H3.832z M7.269,19.295H5.652v-1.618h1.618V19.295z M7.269,16.666H5.652
			v-1.618h1.618V16.666z M7.269,13.835H5.652v-1.618h1.618V13.835z M7.269,11.207H5.652V9.589h1.618V11.207z M9.898,19.295H8.281
			v-1.618h1.618V19.295z M9.898,16.666H8.281v-1.618h1.618V16.666z M9.898,13.835H8.281v-1.618h1.618V13.835z M9.898,11.207H8.281
			V9.589h1.618V11.207z M12.527,19.295h-1.618v-1.618h1.618V19.295z M12.527,16.666h-1.618v-1.618h1.618V16.666z M12.527,13.835
			h-1.618v-1.618h1.618V13.835z M12.527,11.207h-1.618V9.589h1.618V11.207z M15.965,19.295h-1.618v-4.449h1.618V19.295z
			 M15.965,13.835h-1.618v-1.618h1.618V13.835z M15.965,11.207h-1.618V9.589h1.618V11.207z M15.965,6.555H5.652v-3.64h10.313V6.555z
			"/>
		<g>
			<text transform="matrix(1 0 0 1 13.1897 5.9291)" fill="#F9F9F9" font-family="'ArialMT'" font-size="3.2131">0</text>
		</g>
		<rect x="3.832" y="7.971" fill="#F9F9F9" width="13.953" height="0.404"/>
	</g>
</g>
</svg>
