<?xml version="1.0" encoding="utf-8"?>
<!-- Generator: Adobe Illustrator 16.0.0, SVG Export Plug-In . SVG Version: 6.00 Build 0)  -->
<!DOCTYPE svg PUBLIC "-//W3C//DTD SVG 1.1//EN" "http://www.w3.org/Graphics/SVG/1.1/DTD/svg11.dtd">
<svg version="1.1" id="Layer_1" xmlns="http://www.w3.org/2000/svg" xmlns:xlink="http://www.w3.org/1999/xlink" x="0px" y="0px"
	 width="25.333px" height="22.148px" viewBox="0 0 25.333 22.148" enable-background="new 0 0 25.333 22.148" xml:space="preserve">
<g>
	<path fill="#F9F9F9" stroke="#F9F9F9" stroke-width="0.5" stroke-miterlimit="10" d="M12.47,6.149l-0.338,1.545L10.82,7.726
		l-0.118-1.609l-0.31-0.047C10.374,6.067,9.965,6.007,9.34,6.007c-1.357,0-3.87,0.29-5.46,2.236
		c-0.839,1.026-1.299,2.376-1.395,4.021c-0.863,0.208-1.507,0.979-1.507,1.902c0,1.043,0.819,1.894,1.847,1.953
		c0.551,2.456,3.424,4.369,6.594,4.369c2.98,0,6.271-1.883,6.689-7.141l8.246-2.321v-5.22L12.47,6.149z M1.764,14.168
		c0-0.479,0.292-0.896,0.707-1.079c0.01,0.695,0.08,1.438,0.209,2.229C2.157,15.195,1.764,14.729,1.764,14.168z M23.568,10.433
		l-8.208,2.312l-0.018,0.279c-0.245,4.183-2.459,6.682-5.923,6.682c-2.798,0-5.419-1.716-5.845-3.823
		C2.925,12.68,3.232,10.276,4.488,8.74c1.386-1.694,3.635-1.948,4.853-1.948c0.252,0,0.466,0.011,0.625,0.023l0.126,1.714
		l2.677-0.066l0.339-1.549l10.46-0.298V10.433z"/>
	
		<rect x="11.07" y="1.142" fill="#F9F9F9" stroke="#F9F9F9" stroke-width="0.5" stroke-miterlimit="10" width="0.786" height="3.553"/>
	
		<rect x="15.229" y="1.227" transform="matrix(0.7291 0.6844 -0.6844 0.7291 6.2083 -9.9094)" fill="#F9F9F9" stroke="#F9F9F9" stroke-width="0.5" stroke-miterlimit="10" width="0.786" height="3.322"/>
	
		<rect x="6.043" y="2.774" transform="matrix(0.6782 0.7348 -0.7348 0.6782 4.8056 -4.6416)" fill="#F9F9F9" stroke="#F9F9F9" stroke-width="0.5" stroke-miterlimit="10" width="3.321" height="0.785"/>
</g>
</svg>
