<?xml version="1.0" encoding="utf-8"?>
<!-- Generator: Adobe Illustrator 16.0.0, SVG Export Plug-In . SVG Version: 6.00 Build 0)  -->
<!DOCTYPE svg PUBLIC "-//W3C//DTD SVG 1.1//EN" "http://www.w3.org/Graphics/SVG/1.1/DTD/svg11.dtd">
<svg version="1.1" id="Layer_1" xmlns="http://www.w3.org/2000/svg" xmlns:xlink="http://www.w3.org/1999/xlink" x="0px" y="0px"
	 width="24.579px" height="22.17px" viewBox="0 0 24.579 22.17" enable-background="new 0 0 24.579 22.17" xml:space="preserve">
<g>
	<path fill="#F9F9F9" stroke="#F9F9F9" stroke-width="0.5" stroke-miterlimit="10" d="M8.004,20.298
		c-1.735,0-2.892-0.723-3.215-1.99H4.021c-0.217,0-0.517,0-0.797-0.283c-0.237-0.237-0.281-0.306-0.281-0.596V3.88
		C2.943,3.321,3.264,3,3.823,3h2.391C6.43,3,6.728,3,7.009,3.281c0.239,0.241,0.283,0.307,0.283,0.598v13.548
		c0,0.553-0.328,0.881-0.88,0.881H5.98c0.228,0.631,0.771,1.031,2.225,1.031c0.712,0,1.307-0.48,1.587-1.031H9.4
		c-0.217,0-0.516,0-0.797-0.283c-0.237-0.237-0.281-0.306-0.281-0.596V3.88C8.322,3.321,8.644,3,9.202,3h11.554
		c0.217,0,0.516,0,0.795,0.281l0.084,0.082v14.064c0,0.551-0.328,0.881-0.879,0.881H10.623C10.318,19.487,9.274,20.298,8.004,20.298
		z M6.411,17.744c0.245,0,0.318-0.071,0.318-0.317V3.88c0-0.04,0.001-0.069-0.001-0.092l0,0c-0.008,0-0.063-0.055-0.117-0.108
		C6.499,3.566,6.407,3.563,6.212,3.563H3.821c-0.245,0-0.318,0.073-0.318,0.317v13.547c0,0.041-0.001,0.069,0.001,0.094l0,0
		c0.008,0,0.063,0.057,0.115,0.105c0.111,0.115,0.204,0.118,0.4,0.118 M10.16,17.744h10.596c0.244,0,0.318-0.071,0.318-0.317V3.614
		c-0.084-0.049-0.175-0.051-0.318-0.051H9.202c-0.245,0-0.318,0.073-0.318,0.317v13.547c0,0.041-0.001,0.069,0.001,0.094l0,0
		c0.007,0,0.062,0.057,0.115,0.105c0.111,0.115,0.204,0.118,0.399,0.118H10.16z M19.161,13.522h-1.592
		c-0.313,0-0.48-0.246-0.48-0.479v-0.599c0-0.313,0.248-0.479,0.48-0.479h1.592c0.313,0,0.482,0.247,0.482,0.479v0.599
		C19.643,13.354,19.395,13.522,19.161,13.522z M17.651,12.962h1.43v-0.434h-1.43V12.962z M16.174,13.522h-1.596
		c-0.313,0-0.479-0.246-0.479-0.479v-0.599c0-0.313,0.247-0.479,0.479-0.479h1.596c0.313,0,0.479,0.247,0.479,0.479v0.599
		C16.655,13.354,16.405,13.522,16.174,13.522z M14.661,12.962h1.432v-0.434h-1.432V12.962z M13.184,13.522h-1.593
		c-0.312,0-0.481-0.246-0.481-0.479v-0.599c0-0.313,0.248-0.479,0.481-0.479h1.593c0.313,0,0.48,0.247,0.48,0.479v0.599
		C13.665,13.354,13.417,13.522,13.184,13.522z M11.671,12.962h1.432v-0.434h-1.432V12.962z M19.161,11.332h-1.592
		c-0.313,0-0.48-0.248-0.48-0.479v-0.599c0-0.313,0.248-0.479,0.48-0.479h1.592c0.313,0,0.482,0.248,0.482,0.479v0.599
		C19.643,11.165,19.395,11.332,19.161,11.332z M17.651,10.771h1.43v-0.434h-1.43V10.771z M16.174,11.332h-1.596
		c-0.313,0-0.479-0.248-0.479-0.479v-0.599c0-0.313,0.247-0.479,0.479-0.479h1.596c0.313,0,0.479,0.248,0.479,0.479v0.599
		C16.655,11.165,16.405,11.332,16.174,11.332z M14.661,10.771h1.432v-0.434h-1.432V10.771z M13.184,11.332h-1.593
		c-0.312,0-0.481-0.248-0.481-0.479v-0.599c0-0.313,0.248-0.479,0.481-0.479h1.593c0.313,0,0.48,0.248,0.48,0.479v0.599
		C13.665,11.165,13.417,11.332,13.184,11.332z M11.671,10.771h1.432v-0.434h-1.432V10.771z M19.161,9.141h-1.592
		c-0.313,0-0.48-0.248-0.48-0.479V8.063c0-0.312,0.248-0.481,0.48-0.481h1.592c0.313,0,0.482,0.248,0.482,0.481v0.598
		C19.643,8.974,19.395,9.141,19.161,9.141z M17.651,8.579h1.43V8.145h-1.43V8.579z M16.174,9.141h-1.596
		c-0.313,0-0.479-0.248-0.479-0.479V8.063c0-0.312,0.247-0.481,0.479-0.481h1.596c0.313,0,0.479,0.248,0.479,0.481v0.598
		C16.655,8.974,16.405,9.141,16.174,9.141z M14.661,8.579h1.432V8.145h-1.432V8.579z M13.184,9.141h-1.593
		c-0.312,0-0.481-0.248-0.481-0.479V8.063c0-0.312,0.248-0.481,0.481-0.481h1.593c0.313,0,0.48,0.248,0.48,0.481v0.598
		C13.665,8.974,13.417,9.141,13.184,9.141z M11.671,8.579h1.432V8.145h-1.432V8.579z"/>
</g>
</svg>
