<?xml version="1.0" encoding="utf-8"?>
<!-- Generator: Adobe Illustrator 16.0.0, SVG Export Plug-In . SVG Version: 6.00 Build 0)  -->
<!DOCTYPE svg PUBLIC "-//W3C//DTD SVG 1.1//EN" "http://www.w3.org/Graphics/SVG/1.1/DTD/svg11.dtd">
<svg version="1.1" id="Layer_1" xmlns="http://www.w3.org/2000/svg" xmlns:xlink="http://www.w3.org/1999/xlink" x="0px" y="0px"
	 width="25.085px" height="20.268px" viewBox="0 0 25.085 20.268" enable-background="new 0 0 25.085 20.268" xml:space="preserve">
<g>
	<g>
		<g>
			<path fill="#F9F9F9" stroke="#F9F9F9" stroke-width="0.5" stroke-miterlimit="10" d="M22.836,19.055l-4.037-2.423H9.885
				c-1.059,0-2.402-1.022-2.402-2.173v-0.559h12.104c0.979,0,1.521-1.035,1.521-1.752V5.124h1.021c0.973,0,1.621,0.629,1.931,1.865
				l0.011,7.47c0,0.961-0.467,2.073-1.768,2.166L22.836,19.055z M8.138,14.553c0.078,0.725,1.045,1.428,1.747,1.428h9.098
				l2.895,1.736l-0.387-1.736h0.637c1.195,0,1.289-1.162,1.289-1.52V7.071c-0.297-1.149-0.877-1.292-1.289-1.292h-0.369v6.373
				c0,1.16-0.873,2.403-2.172,2.403H8.138V14.553z"/>
		</g>
		<g>
			<path fill="#F9F9F9" stroke="#F9F9F9" stroke-width="0.5" stroke-miterlimit="10" d="M2.453,16.528l0.802-3.213
				c-1.132-0.311-2.238-1.054-2.238-2.087V2.911C1.016,1.789,2.543,0.509,3.882,0.509h13.854c1.526,0,2.638,1.011,2.638,2.401v8.316
				c0,1.359-1.342,2.171-2.638,2.171H7.668L2.453,16.528z M3.882,1.161c-1.028,0-2.214,1.061-2.214,1.75v8.316
				c0,0.729,1.053,1.33,2.045,1.526l0.335,0.066l-0.585,2.346l4.023-2.418h10.249c0.977,0,1.985-0.569,1.985-1.521V2.911
				c0-1.016-0.834-1.752-1.985-1.752H3.882V1.161z M15.429,8.087c-0.872,0-1.481-0.608-1.481-1.479c0-0.872,0.609-1.48,1.481-1.48
				c0.87,0,1.479,0.608,1.479,1.48C16.909,7.479,16.299,8.087,15.429,8.087z M15.429,5.778c-0.513,0-0.83,0.317-0.83,0.828
				c0,0.512,0.317,0.829,0.83,0.829c0.511,0,0.827-0.317,0.827-0.829C16.256,6.095,15.942,5.778,15.429,5.778z M10.81,8.087
				c-0.872,0-1.481-0.608-1.481-1.479c0-0.872,0.609-1.48,1.481-1.48c0.871,0,1.48,0.608,1.48,1.48
				C12.291,7.479,11.681,8.087,10.81,8.087z M10.81,5.778c-0.513,0-0.829,0.317-0.829,0.828c0,0.512,0.317,0.829,0.829,0.829
				s0.828-0.317,0.828-0.829C11.638,6.095,11.322,5.778,10.81,5.778z M6.19,8.087c-0.869,0-1.479-0.608-1.479-1.479
				c0-0.872,0.61-1.48,1.479-1.48c0.872,0,1.48,0.608,1.48,1.48C7.67,7.479,7.062,8.087,6.19,8.087z M6.19,5.778
				c-0.509,0-0.827,0.317-0.827,0.828c0,0.512,0.318,0.829,0.827,0.829c0.513,0,0.828-0.317,0.828-0.829
				C7.018,6.095,6.703,5.778,6.19,5.778z"/>
		</g>
	</g>
</g>
</svg>
