<?xml version="1.0" encoding="utf-8"?>
<!-- Generator: Adobe Illustrator 16.0.0, SVG Export Plug-In . SVG Version: 6.00 Build 0)  -->
<!DOCTYPE svg PUBLIC "-//W3C//DTD SVG 1.1//EN" "http://www.w3.org/Graphics/SVG/1.1/DTD/svg11.dtd">
<svg version="1.1" id="Layer_1" xmlns="http://www.w3.org/2000/svg" xmlns:xlink="http://www.w3.org/1999/xlink" x="0px" y="0px"
	 width="23.949px" height="23.195px" viewBox="0 -0.638 23.949 23.195" enable-background="new 0 -0.638 23.949 23.195"
	 xml:space="preserve">
<g>
	<g>
		<path fill="#F9F9F9" d="M11.815,0.858L2.108,15.216c0,0,3.438,0.202,4.854,0c1.416-0.202,3.033-0.607,3.033-0.607
			s-3.438-1.82-1.618-6.673S11.815,0.858,11.815,0.858z"/>
		<path fill="#F9F9F9" d="M13.635,0.858c0,0-1.416,3.033-1.618,4.044s-0.403,2.831-0.403,2.831s2.224-0.606,3.438,0
			c1.214,0.607,3.64,3.033,4.449,4.247c0.809,1.213,2.831,3.438,2.831,3.438S15.859,4.094,13.635,0.858z"/>
		<path fill="#F9F9F9" d="M16.264,11.575c0,0-0.606,2.629-4.247,3.843c-3.64,1.213-7.279,1.617-7.279,1.617h15.976
			C20.714,16.834,18.085,12.991,16.264,11.575z"/>
		<ellipse fill="#F9F9F9" cx="12.422" cy="11.373" rx="1.618" ry="1.618"/>
	</g>
</g>
</svg>
