<?xml version="1.0" encoding="iso-8859-1"?>
<!-- Generator: Adobe Illustrator 17.1.0, SVG Export Plug-In . SVG Version: 6.00 Build 0)  -->
<!DOCTYPE svg PUBLIC "-//W3C//DTD SVG 1.1//EN" "http://www.w3.org/Graphics/SVG/1.1/DTD/svg11.dtd">
<svg version="1.1" id="Layer_1" xmlns="http://www.w3.org/2000/svg" xmlns:xlink="http://www.w3.org/1999/xlink" x="0px" y="0px"
	 width="49.224px" height="48.066px" viewBox="0 0 49.224 48.066" enable-background="new 0 0 49.224 48.066" xml:space="preserve">
<g>
	<path fill="#E5E5E5" d="M43.685,2.927H3.984c-0.528,0-0.957,0.428-0.957,0.957v39.701c0,0.528,0.428,0.957,0.957,0.957h39.701
		c0.528,0,0.957-0.428,0.957-0.957V3.884C44.642,3.356,44.213,2.927,43.685,2.927z M42.728,4.841v4.305h-4.305V4.841H42.728z
		 M4.941,4.841h31.57v4.305H4.941V4.841z M4.941,42.628v-31.57h37.788v31.57H4.941z"/>
	<path fill="#E5E5E5" d="M39.109,22.207H8.56c-0.528,0-0.957,0.428-0.957,0.957S8.032,24.12,8.56,24.12h30.549
		c0.528,0,0.957-0.428,0.957-0.957S39.637,22.207,39.109,22.207z"/>
	<path fill="#E5E5E5" d="M21.971,26.034h-9.957c-0.528,0-0.957,0.428-0.957,0.957c0,0.528,0.428,0.957,0.957,0.957h9.957
		c0.528,0,0.957-0.428,0.957-0.957S22.499,26.034,21.971,26.034z"/>
	<path fill="#E5E5E5" d="M8.56,27.947h0.177c0.528,0,0.957-0.428,0.957-0.957s-0.428-0.957-0.957-0.957H8.56
		c-0.528,0-0.957,0.428-0.957,0.957C7.603,27.519,8.032,27.947,8.56,27.947z"/>
	<path fill="#E5E5E5" d="M21.971,29.86H8.56c-0.528,0-0.957,0.428-0.957,0.957c0,0.528,0.428,0.957,0.957,0.957h13.411
		c0.528,0,0.957-0.428,0.957-0.957C22.928,30.289,22.499,29.86,21.971,29.86z"/>
	<path fill="#E5E5E5" d="M21.971,33.687h-0.104c-0.528,0-0.957,0.428-0.957,0.957c0,0.528,0.428,0.957,0.957,0.957h0.104
		c0.528,0,0.957-0.428,0.957-0.957C22.928,34.115,22.499,33.687,21.971,33.687z"/>
	<path fill="#E5E5E5" d="M8.56,35.6h10.27c0.528,0,0.957-0.428,0.957-0.957c0-0.528-0.428-0.957-0.957-0.957H8.56
		c-0.528,0-0.957,0.428-0.957,0.957C7.603,35.172,8.032,35.6,8.56,35.6z"/>
	<path fill="#E5E5E5" d="M21.971,37.514H8.56c-0.528,0-0.957,0.428-0.957,0.957c0,0.528,0.428,0.957,0.957,0.957h13.411
		c0.528,0,0.957-0.428,0.957-0.957C22.928,37.942,22.499,37.514,21.971,37.514z"/>
	<path fill="#E5E5E5" d="M39.109,26.034H26.18c-0.528,0-0.957,0.428-0.957,0.957v11.48c0,0.528,0.428,0.957,0.957,0.957h12.929
		c0.528,0,0.957-0.428,0.957-0.957V26.99C40.066,26.462,39.637,26.034,39.109,26.034z M38.152,37.514H27.137v-9.567h11.015V37.514z"
		/>
	<path fill="#E5E5E5" d="M14.507,19.481h18.655c0.528,0,0.957-0.428,0.957-0.957v-4.305c0-0.528-0.428-0.957-0.957-0.957H14.507
		c-0.528,0-0.957,0.428-0.957,0.957v4.305C13.55,19.052,13.979,19.481,14.507,19.481z M15.464,15.176h16.741v2.392H15.464V15.176z"
		/>
</g>
</svg>
