<?xml version="1.0" encoding="utf-8"?>
<!-- Generator: Adobe Illustrator 16.0.0, SVG Export Plug-In . SVG Version: 6.00 Build 0)  -->
<!DOCTYPE svg PUBLIC "-//W3C//DTD SVG 1.1//EN" "http://www.w3.org/Graphics/SVG/1.1/DTD/svg11.dtd">
<svg version="1.1" id="Layer_1" xmlns="http://www.w3.org/2000/svg" xmlns:xlink="http://www.w3.org/1999/xlink" x="0px" y="0px"
	 width="60.529px" height="100px" viewBox="0 -19.6 60.529 100" enable-background="new 0 -19.6 60.529 100" xml:space="preserve">
<line fill="none" x1="70.905" y1="17.8" x2="75.155" y2="12.925"/>
<line fill="none" x1="75.78" y1="12.925" x2="83.155" y2="20.675"/>
<line fill="none" x1="80.78" y1="28.675" x2="74.53" y2="41.462"/>
<line fill="none" x1="65.03" y1="43.925" x2="56.03" y2="43.425"/>
<g transform="translate(0.000000,116.000000) scale(0.100000,-0.100000)">
	<path fill="#E5E5E5" d="M69.319,1254.817l-58.979-58.984l21.782-22.686l21.782-23.594l61.704,61.709l61.699,60.796l-19.966,20.869
		c-10.889,11.797-21.772,20.869-24.497,20.869S101.077,1287.483,69.319,1254.817z"/>
	<path fill="#E5E5E5" d="M469.495,1289.294l-19.063-27.227l52.637-51.714l51.719-50.82l21.787,22.686l21.777,23.599L543,1260.261
		l-54.443,55.352L469.495,1289.294z"/>
	<path fill="#E5E5E5" d="M133.752,1193.113c-40.83-40.835-46.284-50.82-35.391-59.893c7.256-5.439,16.333-21.782,19.961-35.391
		c9.077-37.202,29.946-65.332,55.352-75.317c12.705-4.536,25.42-16.328,28.135-26.309c2.715-9.985,9.072-18.149,13.613-18.149
		c5.439,0,25.41-16.338,44.463-36.294c19.961-19.976,35.391-33.584,35.391-29.951c0,3.638-17.246,23.584-37.207,44.463
		c-22.686,22.686-34.482,42.646-30.85,49.004c4.541,7.251,24.502-6.357,59.883-41.743c35.391-35.381,56.26-49.907,62.617-43.555
		c6.357,6.343-6.357,23.589-36.299,53.54c-25.4,24.497-45.371,48.086-45.371,51.719c0,19.048,28.125,2.725,72.598-42.642
		c27.217-27.222,52.627-49.907,56.26-49.907c19.961,0,1.807,28.125-47.188,76.216c-29.951,29.043-54.443,57.163-54.443,60.801
		c0,18.145,19.961,5.439,70.771-46.279c29.941-29.946,57.168-54.443,59.893-54.443c18.154,0-2.725,30.85-57.168,85.293
		l-62.607,62.607l-25.41-19.956c-29.033-22.686-51.729-24.502-70.781-4.536c-21.777,20.869-18.145,36.294,18.145,76.221
		c28.135,30.85,29.951,36.294,15.43,36.294c-9.98,0-25.41,8.164-34.482,18.154c-9.072,9.98-19.053,18.145-21.777,18.145
		C183.66,1241.204,160.066,1219.426,133.752,1193.113z"/>
	<path fill="#E5E5E5" d="M418.684,1218.518c-10.889-8.164-29.951-10.894-59.893-7.256c-42.656,4.536-45.371,3.628-89.834-38.115
		c-25.41-23.594-46.279-48.999-46.279-55.352c0-22.686,32.666-12.7,63.525,19.058c29.033,29.941,49.902,35.386,39.922,9.98
		c-6.357-15.43,29.951-41.738,57.168-41.738c22.686,0,28.125-13.608,9.98-20.879c-8.164-2.72-1.816-14.512,17.246-34.482
		c29.033-29.033,29.941-29.937,43.555-12.695c7.256,9.98,18.145,33.569,23.584,51.714c6.357,19.053,19.063,40.835,28.145,49.912
		c16.318,14.517,15.42,16.333-21.787,54.448C441.36,1236.667,442.268,1236.667,418.684,1218.518z"/>
	<path fill="#E5E5E5" d="M159.163,982.595c0-8.174,4.536-13.613,9.976-11.802c5.449,1.816,9.985,7.261,9.985,11.802
		c0,4.536-4.536,9.976-9.985,11.787C163.699,996.204,159.163,990.754,159.163,982.595z"/>
	<path fill="#E5E5E5" d="M195.452,946.296c0-7.266,6.357-13.608,13.613-13.608c7.266,0,13.613,6.343,13.613,13.608
		c0,7.251-6.348,13.613-13.613,13.613C201.809,959.91,195.452,953.547,195.452,946.296z"/>
	<path fill="#E5E5E5" d="M237.19,917.244c-9.971-9.966-5.43-20.854,8.174-20.854c7.256,0,13.613,3.623,13.613,8.164
		C258.977,916.345,244.456,924.514,237.19,917.244z"/>
</g>
</svg>
