<?xml version="1.0" encoding="utf-8"?>
<!-- Generator: Adobe Illustrator 16.0.0, SVG Export Plug-In . SVG Version: 6.00 Build 0)  -->
<!DOCTYPE svg PUBLIC "-//W3C//DTD SVG 1.1//EN" "http://www.w3.org/Graphics/SVG/1.1/DTD/svg11.dtd">
<svg version="1.1" id="Layer_1" xmlns="http://www.w3.org/2000/svg" xmlns:xlink="http://www.w3.org/1999/xlink" x="0px" y="0px"
	 width="45.393px" height="100px" viewBox="0 -1.081 45.393 100" enable-background="new 0 -1.081 45.393 100" xml:space="preserve"
	>
<g>
	<path fill="#E5E5E5" d="M39.462,10.416c0-1.851-1.506-3.357-3.357-3.357H10.82c-0.513,0-0.928,0.416-0.928,0.928v2.831H8.847
		c-1.851,0-3.355,1.506-3.355,3.357v32.621c0,1.791,1.457,3.248,3.249,3.248h25.938c2.637,0,4.783-2.145,4.783-4.781V10.416z
		 M11.749,8.916h24.355c0.828,0,1.501,0.673,1.501,1.501v29.488c-0.81-0.627-1.827-0.998-2.926-0.998H11.75L11.749,8.916
		L11.749,8.916z M7.347,14.176c0-0.828,0.673-1.501,1.5-1.501h1.045v27.16c0,0.514,0.416,0.929,0.928,0.929h22.484v2.784H8.739
		c-0.489,0-0.963,0.106-1.392,0.311V14.176z M37.605,45.262c0,1.613-1.313,2.926-2.926,2.926H8.739
		c-0.744,0-1.354-0.589-1.389-1.326c0,0-0.065-0.58,0.404-1.051c0.263-0.264,0.612-0.408,0.984-0.408h25.493
		c0.514,0,0.929-0.416,0.929-0.928v-3.672c1.332,0.22,2.366,1.338,2.44,2.727C37.604,43.583,37.605,45.262,37.605,45.262z"/>
	<path fill="#E5E5E5" d="M16.505,36.129c0.513,0,0.928-0.416,0.928-0.928V12.461c0-0.513-0.416-0.928-0.928-0.928
		c-0.513,0-0.928,0.416-0.928,0.928v22.741C15.577,35.713,15.992,36.129,16.505,36.129z"/>
	<path fill="#E5E5E5" d="M20.217,36.129c0.513,0,0.928-0.416,0.928-0.928v-8.295c0-0.513-0.416-0.928-0.928-0.928
		c-0.513,0-0.928,0.416-0.928,0.928v8.295C19.289,35.713,19.705,36.129,20.217,36.129z"/>
	<path fill="#E5E5E5" d="M23.93,25.978c-0.513,0-0.928,0.416-0.928,0.929v8.295c0,0.512,0.416,0.928,0.928,0.928
		c0.513,0,0.928-0.416,0.928-0.928v-8.295C24.858,26.394,24.443,25.978,23.93,25.978z"/>
	<path fill="#E5E5E5" d="M27.643,25.978c-0.513,0-0.928,0.416-0.928,0.929v8.295c0,0.512,0.416,0.928,0.928,0.928
		s0.928-0.416,0.928-0.928v-8.295C28.571,26.394,28.155,25.978,27.643,25.978z"/>
	<path fill="#E5E5E5" d="M31.355,25.978c-0.513,0-0.928,0.416-0.928,0.929v8.295c0,0.512,0.416,0.928,0.928,0.928
		c0.514,0,0.929-0.416,0.929-0.928v-8.295C32.283,26.394,31.868,25.978,31.355,25.978z"/>
	<path fill="#E5E5E5" d="M20.217,23.379h11.138c0.514,0,0.929-0.416,0.929-0.928v-10.21c0-0.513-0.416-0.928-0.929-0.928H20.217
		c-0.513,0-0.928,0.416-0.928,0.928v10.21C19.289,22.964,19.705,23.379,20.217,23.379z M21.146,13.17h9.282v8.353h-9.282V13.17
		L21.146,13.17z"/>
</g>
</svg>
