<?xml version="1.0" encoding="iso-8859-1"?>
<!-- Generator: Adobe Illustrator 17.1.0, SVG Export Plug-In . SVG Version: 6.00 Build 0)  -->
<!DOCTYPE svg PUBLIC "-//W3C//DTD SVG 1.1//EN" "http://www.w3.org/Graphics/SVG/1.1/DTD/svg11.dtd">
<svg version="1.1" id="Layer_1" xmlns="http://www.w3.org/2000/svg" xmlns:xlink="http://www.w3.org/1999/xlink" x="0px" y="0px"
	 width="43.461px" height="49.276px" viewBox="0 0 43.461 49.276" enable-background="new 0 0 43.461 49.276" xml:space="preserve">
<g>
	<path fill="#E5E5E5" d="M16.436,21.92h-1.721c-0.483,0-0.875,0.392-0.875,0.875s0.392,0.875,0.875,0.875h1.721
		c0.483,0,0.875-0.392,0.875-0.875S16.919,21.92,16.436,21.92L16.436,21.92z M16.436,21.92"/>
	<path fill="#E5E5E5" d="M40.435,22.795c0-8.818-7.174-15.992-15.992-15.992c-8.818,0-15.992,7.174-15.992,15.992
		c0,8.524,6.704,15.512,15.117,15.967v2.332C13.9,40.636,6.174,32.627,6.174,22.846c0-9.78,7.726-17.79,17.394-18.248v0.589
		c0,0.483,0.392,0.875,0.875,0.875c0.484,0,0.875-0.392,0.875-0.875V3.785c0-0.014-0.001-0.027-0.002-0.041
		c0.001-0.014,0.002-0.027,0.002-0.041c0-0.483-0.391-0.875-0.875-0.875c-5.347,0-10.374,2.082-14.155,5.864
		c-3.781,3.781-5.864,8.808-5.864,14.155c0,5.347,2.082,10.374,5.864,14.156c3.574,3.574,8.262,5.629,13.28,5.844v2.149h-4.736
		c-0.483,0-0.875,0.392-0.875,0.875s0.392,0.875,0.875,0.875h11.222c0.483,0,0.875-0.392,0.875-0.875s-0.392-0.875-0.875-0.875
		h-4.736v-6.232C33.731,38.307,40.435,31.319,40.435,22.795L40.435,22.795z M27.839,36.627c0.535-0.759,1.021-1.708,1.445-2.835
		c0.258-0.684,0.488-1.42,0.69-2.199c1.275,0.537,2.472,1.263,3.554,2.161C31.898,35.109,29.961,36.106,27.839,36.627L27.839,36.627
		z M34.812,32.547c-1.339-1.142-2.841-2.044-4.448-2.684c0.37-1.912,0.586-4.012,0.632-6.193h7.662
		C38.449,27.094,37.025,30.196,34.812,32.547L34.812,32.547z M33.519,11.827c-0.672,0.568-1.396,1.073-2.16,1.507
		c-0.42,0.239-0.567,0.773-0.328,1.193c0.161,0.284,0.457,0.443,0.761,0.443c0.147,0,0.295-0.037,0.432-0.114
		c0.916-0.521,1.78-1.134,2.577-1.825c2.219,2.353,3.648,5.459,3.856,8.89h-7.662c-0.08-3.813-0.68-7.38-1.712-10.122
		c-0.424-1.127-0.91-2.076-1.445-2.835C29.957,9.483,31.89,10.477,33.519,11.827L33.519,11.827z M24.443,8.553
		c1.096,0,2.293,1.443,3.203,3.861c0.961,2.554,1.522,5.902,1.6,9.506h-8.171c-0.483,0-0.875,0.391-0.875,0.875
		c0,0.483,0.392,0.875,0.875,0.875h8.171c-0.043,1.985-0.233,3.893-0.555,5.633c-1.37-0.377-2.797-0.572-4.248-0.572
		c-1.451,0-2.878,0.196-4.248,0.572c-0.37-1.994-0.565-4.208-0.565-6.507c0-2.268,0.19-4.453,0.55-6.426
		c1.361,0.374,2.788,0.565,4.263,0.565c0.739,0,1.482-0.051,2.209-0.151c0.479-0.066,0.813-0.508,0.747-0.986
		c-0.066-0.479-0.509-0.813-0.986-0.747c-0.648,0.09-1.31,0.135-1.97,0.135c-1.349,0-2.652-0.18-3.894-0.531
		c0.2-0.798,0.431-1.549,0.691-2.24C22.15,9.996,23.348,8.553,24.443,8.553L24.443,8.553z M21.048,8.963
		c-0.535,0.759-1.021,1.708-1.445,2.835c-0.265,0.706-0.502,1.466-0.709,2.272c-1.274-0.546-2.466-1.289-3.554-2.219
		C16.975,10.489,18.918,9.486,21.048,8.963L21.048,8.963z M10.229,23.67h2.016c0.483,0,0.875-0.392,0.875-0.875
		s-0.392-0.875-0.875-0.875h-2.016c0.208-3.418,1.627-6.513,3.832-8.863c1.348,1.18,2.841,2.1,4.446,2.747
		c-0.41,2.146-0.626,4.526-0.626,6.99c0,2.493,0.222,4.902,0.641,7.068c-1.607,0.64-3.109,1.542-4.448,2.684
		C11.861,30.196,10.438,27.094,10.229,23.67L10.229,23.67z M15.358,33.755c1.082-0.898,2.279-1.624,3.554-2.161
		c0.203,0.778,0.433,1.515,0.69,2.199c0.424,1.127,0.91,2.076,1.445,2.835C18.926,36.106,16.989,35.109,15.358,33.755L15.358,33.755
		z M24.443,37.037c-1.096,0-2.293-1.443-3.203-3.861c-0.252-0.669-0.476-1.393-0.671-2.162c1.248-0.352,2.549-0.535,3.874-0.535
		c1.325,0,2.626,0.183,3.874,0.535c-0.196,0.768-0.419,1.492-0.671,2.162C26.737,35.594,25.539,37.037,24.443,37.037L24.443,37.037z
		 M24.443,37.037"/>
</g>
</svg>
