<?xml version="1.0" encoding="utf-8"?>
<!-- Generator: Adobe Illustrator 16.0.0, SVG Export Plug-In . SVG Version: 6.00 Build 0)  -->
<!DOCTYPE svg PUBLIC "-//W3C//DTD SVG 1.1//EN" "http://www.w3.org/Graphics/SVG/1.1/DTD/svg11.dtd">
<svg version="1.1"
	 id="svg2" xmlns:inkscape="http://www.inkscape.org/namespaces/inkscape" xmlns:rdf="http://www.w3.org/1999/02/22-rdf-syntax-ns#" xmlns:svg="http://www.w3.org/2000/svg" xmlns:dc="http://purl.org/dc/elements/1.1/" xmlns:cc="http://creativecommons.org/ns#" xmlns:sodipodi="http://sodipodi.sourceforge.net/DTD/sodipodi-0.dtd"
	 xmlns="http://www.w3.org/2000/svg" xmlns:xlink="http://www.w3.org/1999/xlink" x="0px" y="0px" width="512px" height="512px"
	 viewBox="0 0 512 512" enable-background="new 0 0 512 512" xml:space="preserve">
<g id="layer1" transform="translate(0,-540.3622)">
	<path id="path3766-1" fill="#222222" d="M384.594,920.944c4.985-0.078,9.911-2.162,13.438-5.688l55-55
		c3.601-3.599,5.697-8.658,5.697-13.75c0-5.09-2.097-10.15-5.697-13.75L269.75,649.476c-3.6-3.601-8.659-5.697-13.75-5.697
		s-10.151,2.096-13.75,5.697L58.969,832.757c-3.601,3.6-5.697,8.66-5.697,13.75c0,5.092,2.096,10.151,5.697,13.75l55,55
		c3.598,3.592,8.651,5.682,13.734,5.682s10.136-2.09,13.734-5.682L256,800.694l114.563,114.563
		C374.229,918.922,379.41,921.022,384.594,920.944z"/>
</g>
</svg>
