<?xml version="1.0" encoding="utf-8"?>
<!-- Generator: Adobe Illustrator 16.0.0, SVG Export Plug-In . SVG Version: 6.00 Build 0)  -->
<svg version="1.2" baseProfile="tiny" id="Layer_1" xmlns="http://www.w3.org/2000/svg" xmlns:xlink="http://www.w3.org/1999/xlink"
	 x="0px" y="0px" width="250px" height="250px" viewBox="0 0 250 250" xml:space="preserve">
<g id="_x34__stroke">
	<g id="Youtube_1_">
		<rect x="58.594" y="55.253" fill="none" width="139.493" height="139.493"/>
	</g>
</g>
<path fill="#02275D" d="M171.117,57.831h-85.32c-14.821,0-26.878,12.054-26.878,26.875v28.39v56.933
	c0,14.82,12.057,26.875,26.878,26.875h85.323c14.821,0,26.875-12.055,26.875-26.875v-56.937v-28.39
	C197.992,69.882,185.938,57.831,171.117,57.831z M178.826,73.857l3.074-0.011v3.06V97.42l-23.494,0.074l-0.08-23.568L178.826,73.857
	z M108.606,113.093c4.457-6.164,11.681-10.205,19.851-10.205c8.169,0,15.396,4.041,19.846,10.205
	c2.898,4.022,4.635,8.942,4.635,14.273c0,13.498-10.99,24.476-24.482,24.476c-13.497,0-24.478-10.978-24.478-24.476
	C103.979,122.035,105.71,117.115,108.606,113.093z M184.441,170.025c0,7.354-5.978,13.326-13.324,13.326h-85.32
	c-7.351,0-13.328-5.973-13.328-13.326v-56.933h20.76c-1.794,4.411-2.8,9.227-2.8,14.273c0,20.963,17.057,38.03,38.028,38.03
	c20.973,0,38.027-17.067,38.027-38.03c0-5.046-1.014-9.862-2.805-14.273h20.762V170.025L184.441,170.025z"/>
</svg>
