<?xml version="1.0" encoding="utf-8"?>
<!-- Generator: Adobe Illustrator 16.0.0, SVG Export Plug-In . SVG Version: 6.00 Build 0)  -->
<!DOCTYPE svg PUBLIC "-//W3C//DTD SVG 1.1//EN" "http://www.w3.org/Graphics/SVG/1.1/DTD/svg11.dtd">
<svg version="1.1" id="Layer_1" xmlns="http://www.w3.org/2000/svg" xmlns:xlink="http://www.w3.org/1999/xlink" x="0px" y="0px"
	 width="25.085px" height="20.268px" viewBox="0 0 25.085 20.268" enable-background="new 0 0 25.085 20.268" xml:space="preserve">
<g>
	<g id="XMLID_16_">
		<path fill="#F9F9F9" d="M20.658,10.333L20.658,10.333h-0.021c-0.631-0.013-0.64-0.573-0.646-0.909
			c-0.002-0.059-0.002-0.118-0.006-0.174c0-0.029-0.002-0.056-0.007-0.082c-0.54-4.202-2.497-6.176-6.748-6.817
			c-0.066-0.009-0.14-0.014-0.216-0.02c-0.319-0.023-0.855-0.061-0.826-0.618c0.025-0.444,0.271-0.667,0.726-0.667
			c0.072,0,0.146,0.004,0.216,0.009c0.082,0.006,0.163,0.012,0.229,0.004c4.294,0.139,7.987,3.932,7.934,8.116
			c0,0.062,0.004,0.128,0.006,0.195l0.005,0.099c0.008,0.238,0.002,0.509-0.175,0.691C21.017,10.275,20.858,10.333,20.658,10.333z
			 M12.915,1.419c-0.23,0-0.337,0.044-0.352,0.315c-0.009,0.146,0.054,0.193,0.479,0.224c0.087,0.006,0.17,0.011,0.246,0.024
			c4.449,0.671,6.494,2.739,7.062,7.135c0.005,0.035,0.009,0.074,0.009,0.114c0.005,0.057,0.005,0.122,0.007,0.186
			c0.009,0.452,0.052,0.537,0.279,0.542l0.016,0.186V9.959l0,0c0.095,0,0.161-0.019,0.198-0.057c0.073-0.074,0.075-0.253,0.07-0.418
			l-0.004-0.095c-0.005-0.076-0.007-0.149-0.007-0.217c0.05-3.989-3.474-7.607-7.539-7.741c-0.011,0.008-0.16,0.005-0.273-0.003
			C13.042,1.424,12.979,1.419,12.915,1.419z"/>
	</g>
	<g id="XMLID_15_">
		<path fill="#F9F9F9" d="M18.472,9.523c-0.56,0-0.6-0.504-0.615-0.694L17.848,8.71c-0.004-0.079-0.011-0.158-0.021-0.229
			c-0.431-2.537-1.309-3.434-3.919-4.006c-0.071-0.015-0.148-0.026-0.229-0.037c-0.267-0.036-0.568-0.077-0.731-0.302
			c-0.096-0.128-0.125-0.297-0.091-0.5c0.043-0.251,0.195-0.552,0.67-0.552c0.138,0,0.277,0.023,0.414,0.044
			c0.064,0.011,0.128,0.021,0.189,0.028c2.788,0.329,5.037,2.702,5.016,5.29c-0.008,0.087-0.006,0.161-0.004,0.237
			c0.004,0.108,0.007,0.217-0.007,0.317c-0.052,0.367-0.301,0.479-0.501,0.508C18.574,9.52,18.522,9.523,18.472,9.523z
			 M13.529,3.458c-0.198,0-0.271,0.06-0.304,0.242c-0.018,0.1-0.01,0.172,0.023,0.217c0.071,0.096,0.289,0.125,0.481,0.151
			c0.09,0.013,0.179,0.025,0.26,0.042c2.768,0.606,3.749,1.612,4.203,4.309c0.015,0.083,0.021,0.175,0.028,0.268l0.008,0.111
			c0.03,0.387,0.132,0.376,0.352,0.343c0.125-0.02,0.168-0.063,0.187-0.19c0.011-0.08,0.007-0.168,0.005-0.252
			c-0.005-0.099-0.009-0.195,0.004-0.276c0.02-2.381-2.083-4.586-4.688-4.894c-0.068-0.007-0.136-0.019-0.207-0.03
			C13.763,3.479,13.64,3.458,13.529,3.458z"/>
	</g>
	<g id="XMLID_14_">
		<path fill="#F9F9F9" d="M16.445,8.887c-0.174,0-0.336-0.074-0.452-0.211c-0.105-0.12-0.17-0.277-0.188-0.455
			C15.703,7.22,15.169,6.657,14.172,6.5c-0.239-0.038-0.501-0.104-0.629-0.317c-0.085-0.141-0.09-0.316-0.02-0.522
			c0.153-0.437,0.593-0.448,0.828-0.453c0.001,0,0.001,0,0.001,0c0.646,0,1.337,0.335,1.886,0.894
			c0.555,0.563,0.88,1.264,0.869,1.875c0.011,0.271-0.011,0.614-0.288,0.799c-0.084,0.058-0.186,0.096-0.302,0.108
			C16.493,8.885,16.469,8.887,16.445,8.887z M14.392,5.58c-0.352,0.008-0.464,0.056-0.517,0.204
			c-0.024,0.066-0.044,0.156-0.014,0.208c0.056,0.091,0.289,0.128,0.366,0.139c1.173,0.186,1.827,0.876,1.948,2.053
			c0.011,0.1,0.043,0.189,0.099,0.249c0.048,0.056,0.104,0.082,0.17,0.082l0.032-0.001c0.054-0.007,0.098-0.022,0.134-0.046
			c0.097-0.065,0.134-0.215,0.123-0.487c0.008-0.522-0.275-1.123-0.763-1.616C15.49,5.872,14.9,5.58,14.392,5.58z"/>
	</g>
	<g id="XMLID_13_">
		<path fill="#F9F9F9" d="M17.775,19.052L17.775,19.052l-0.118-0.013c-0.045-0.011-0.105-0.024-0.172-0.039
			c-0.211-0.047-0.502-0.112-0.781-0.23c-4.977-2.101-8.79-5.32-11.333-9.57C4.776,8.206,4.243,7.143,3.783,6.039
			C3.354,5.006,3.334,4.01,3.723,3.157c0.41-0.896,1.238-1.571,2.399-1.954C6.589,1.051,7.039,1.052,7.47,1.21
			c1.027,0.369,3.361,3.491,3.42,4.576c0.055,0.961-0.687,1.454-1.085,1.719C9.249,7.875,9.195,8.24,9.21,8.516
			c0.012,0.214,0.08,0.455,0.206,0.733c0.786,1.733,2.164,3.049,4.095,3.905c0.618,0.277,1.049,0.198,1.382-0.295
			c0.889-1.319,2.097-1.516,3.55-0.517l0.284,0.196c0.476,0.324,0.968,0.66,1.431,1.024c0.086,0.07,0.177,0.138,0.268,0.204
			c0.658,0.495,1.563,1.171,1.078,2.503C20.969,17.754,19.226,19.052,17.775,19.052z M6.8,1.838c-0.143,0-0.289,0.025-0.446,0.075
			C5.399,2.228,4.723,2.766,4.403,3.468c-0.301,0.659-0.278,1.449,0.07,2.284c0.445,1.072,0.962,2.103,1.538,3.065
			c2.46,4.109,6.155,7.229,10.981,9.267c0.22,0.091,0.461,0.145,0.654,0.188c0.059,0.013,0.11,0.025,0.155,0.034
			c1.128-0.018,2.581-1.119,3-2.286c0.282-0.774-0.109-1.116-0.824-1.652c-0.095-0.071-0.189-0.143-0.282-0.216
			c-0.443-0.349-0.923-0.678-1.388-0.994l-0.286-0.195c-1.085-0.747-1.845-0.672-2.508,0.316c-0.526,0.778-1.35,0.987-2.306,0.562
			c-2.103-0.935-3.606-2.374-4.471-4.28C8.572,9.195,8.483,8.868,8.465,8.56C8.426,7.883,8.738,7.319,9.391,6.884
			C9.9,6.546,10.17,6.278,10.145,5.828c-0.042-0.765-2.204-3.655-2.928-3.916C7.077,1.862,6.942,1.838,6.8,1.838z"/>
	</g>
</g>
</svg>
