<?xml version="1.0" encoding="utf-8"?>
<!-- Generator: Adobe Illustrator 16.0.0, SVG Export Plug-In . SVG Version: 6.00 Build 0)  -->
<!DOCTYPE svg PUBLIC "-//W3C//DTD SVG 1.1//EN" "http://www.w3.org/Graphics/SVG/1.1/DTD/svg11.dtd">
<svg version="1.1" id="Layer_1" xmlns="http://www.w3.org/2000/svg" xmlns:xlink="http://www.w3.org/1999/xlink" x="0px" y="0px"
	 width="250px" height="250px" viewBox="0 0 250 250" enable-background="new 0 0 250 250" xml:space="preserve">
<g id="_x34__stroke">
	<g id="Youtube_1_">
		<rect x="58.594" y="55.253" fill="none" width="139.493" height="139.493"/>
		<path id="Youtube" fill="#02275D" d="M196.691,96.91c0,0-1.363-9.681-5.545-13.943c-5.304-5.597-11.25-5.623-13.975-5.948
			c-19.521-1.422-48.802-1.422-48.802-1.422h-0.06c0,0-29.281,0-48.802,1.422c-2.729,0.325-8.67,0.351-13.979,5.948
			c-4.18,4.263-5.541,13.943-5.541,13.943s-1.395,11.371-1.395,22.736v10.66c0,11.369,1.395,22.735,1.395,22.735
			s1.36,9.681,5.541,13.943c5.31,5.597,12.28,5.422,15.383,6.005c11.159,1.081,47.427,1.414,47.427,1.414s29.311-0.043,48.832-1.466
			c2.725-0.329,8.671-0.355,13.975-5.952c4.182-4.264,5.545-13.943,5.545-13.943s1.396-11.366,1.396-22.736v-10.66
			C198.087,108.28,196.691,96.91,196.691,96.91z M113.938,143.222l-0.004-39.472l37.688,19.804L113.938,143.222z"/>
	</g>
</g>
</svg>
