<?xml version="1.0" encoding="iso-8859-1"?>
<!-- Generator: Adobe Illustrator 17.1.0, SVG Export Plug-In . SVG Version: 6.00 Build 0)  -->
<!DOCTYPE svg PUBLIC "-//W3C//DTD SVG 1.1//EN" "http://www.w3.org/Graphics/SVG/1.1/DTD/svg11.dtd">
<svg version="1.1" id="Layer_1" xmlns="http://www.w3.org/2000/svg" xmlns:xlink="http://www.w3.org/1999/xlink" x="0px" y="0px"
	 width="45.393px" height="50.677px" viewBox="0 0 45.393 50.677" enable-background="new 0 0 45.393 50.677" xml:space="preserve">
<g>
	<path fill="#E5E5E5" d="M39.462,7.416c0-1.851-1.506-3.357-3.357-3.357H10.82c-0.513,0-0.928,0.416-0.928,0.928v2.831H8.847
		c-1.851,0-3.356,1.506-3.356,3.357v32.62c0,1.791,1.457,3.249,3.249,3.249h25.939c2.637,0,4.783-2.145,4.783-4.782V7.416z
		 M11.749,5.916h24.356c0.828,0,1.501,0.673,1.501,1.501v29.488c-0.81-0.627-1.827-0.998-2.926-0.998h-22.93V5.916z M7.347,11.176
		c0-0.828,0.673-1.501,1.5-1.501h1.045v27.16c0,0.513,0.416,0.928,0.928,0.928h22.484v2.784H8.739c-0.49,0-0.963,0.107-1.392,0.311
		V11.176z M37.605,42.262c0,1.613-1.313,2.926-2.926,2.926H8.739c-0.745,0-1.354-0.589-1.389-1.326c0,0-0.066-0.58,0.404-1.051
		c0.263-0.263,0.612-0.408,0.985-0.408h25.493c0.513,0,0.928-0.416,0.928-0.928v-3.672c1.332,0.22,2.367,1.338,2.441,2.727
		C37.604,40.582,37.605,42.262,37.605,42.262z"/>
	<path fill="#E5E5E5" d="M16.505,33.13c0.513,0,0.928-0.416,0.928-0.928V9.461c0-0.513-0.416-0.928-0.928-0.928
		c-0.513,0-0.928,0.416-0.928,0.928v22.74C15.577,32.714,15.992,33.13,16.505,33.13z"/>
	<path fill="#E5E5E5" d="M20.217,33.13c0.513,0,0.928-0.416,0.928-0.928v-8.295c0-0.513-0.416-0.928-0.928-0.928
		c-0.513,0-0.928,0.416-0.928,0.928v8.295C19.289,32.714,19.705,33.13,20.217,33.13z"/>
	<path fill="#E5E5E5" d="M23.93,22.978c-0.513,0-0.928,0.416-0.928,0.928v8.295c0,0.513,0.416,0.928,0.928,0.928
		c0.513,0,0.928-0.416,0.928-0.928v-8.295C24.858,23.394,24.443,22.978,23.93,22.978z"/>
	<path fill="#E5E5E5" d="M27.643,22.978c-0.513,0-0.928,0.416-0.928,0.928v8.295c0,0.513,0.416,0.928,0.928,0.928
		s0.928-0.416,0.928-0.928v-8.295C28.571,23.394,28.155,22.978,27.643,22.978z"/>
	<path fill="#E5E5E5" d="M31.355,22.978c-0.513,0-0.928,0.416-0.928,0.928v8.295c0,0.513,0.416,0.928,0.928,0.928
		c0.513,0,0.928-0.416,0.928-0.928v-8.295C32.283,23.394,31.868,22.978,31.355,22.978z"/>
	<path fill="#E5E5E5" d="M20.217,20.379h11.138c0.513,0,0.928-0.416,0.928-0.928V9.241c0-0.513-0.416-0.928-0.928-0.928H20.217
		c-0.513,0-0.928,0.416-0.928,0.928v10.21C19.289,19.964,19.705,20.379,20.217,20.379z M21.146,10.17h9.282v8.353h-9.282
		L21.146,10.17L21.146,10.17z"/>
</g>
</svg>
