<?xml version="1.0" encoding="iso-8859-1"?>
<!-- Generator: Adobe Illustrator 17.1.0, SVG Export Plug-In . SVG Version: 6.00 Build 0)  -->
<!DOCTYPE svg PUBLIC "-//W3C//DTD SVG 1.1//EN" "http://www.w3.org/Graphics/SVG/1.1/DTD/svg11.dtd">
<svg version="1.1" id="Layer_1" xmlns="http://www.w3.org/2000/svg" xmlns:xlink="http://www.w3.org/1999/xlink" x="0px" y="0px"
	 width="49.224px" height="44.505px" viewBox="0 0 49.224 44.505" enable-background="new 0 0 49.224 44.505" xml:space="preserve">
<g>
	<path fill="#E5E5E5" stroke="#E5E5E5" stroke-width="1.1371" stroke-miterlimit="10" d="M43.711,37.054H25.393
		c-2.488,0-4.512,2.024-4.512,4.512v0.34h27.342v-0.34C48.223,39.078,46.199,37.054,43.711,37.054z M21.221,41.566
		c0-2.302,1.87-4.172,4.172-4.172h18.318c2.302,0,4.172,1.87,4.172,4.172H21.221z"/>
	<path fill="#E5E5E5" stroke="#E5E5E5" stroke-width="1.1371" stroke-miterlimit="10" d="M43.951,32.762h-18.75
		c-1.271,0-2.306,1.034-2.306,2.306s1.034,2.306,2.306,2.306h18.75c1.271,0,2.306-1.034,2.306-2.306S45.223,32.762,43.951,32.762z
		 M43.951,37.034h-18.75c-1.103,0-1.966-0.911-1.966-1.966c0-1.103,0.911-1.966,1.966-1.966h18.75c1.103,0,1.966,0.911,1.966,1.966
		C45.917,36.171,45.006,37.034,43.951,37.034z"/>
	<path fill="#E5E5E5" stroke="#E5E5E5" stroke-width="1.1371" stroke-miterlimit="10" d="M26.474,16.875l-0.289,0.108
		c-3.27,1.219-6.685,2.603-9.368,3.795c-8.395,3.656-10.959,5.27-11.671,6.35c-0.314-0.114-0.643-0.174-0.969-0.174
		c-0.437,0-0.853,0.103-1.237,0.307c-0.661,0.32-1.175,0.907-1.411,1.613c-0.236,0.707-0.179,1.456,0.155,2.098
		c0.455,0.947,1.431,1.56,2.488,1.559c0.432,0,0.846-0.101,1.23-0.299c0.681-0.32,1.209-0.964,1.412-1.696
		c0.038,0.002,0.077,0.003,0.118,0.003c1.115,0,3.331-0.679,11.918-5.607c2.828-1.649,6.059-3.624,8.644-5.282l0.255-0.163
		L26.474,16.875z M18.68,24.638c-8.44,4.843-11.077,5.802-12.132,5.515c-0.096,0.719-0.575,1.439-1.295,1.774
		c-1.199,0.623-2.685,0.096-3.261-1.103c-0.623-1.199-0.096-2.685,1.103-3.261c0.719-0.384,1.535-0.336,2.206,0
		c0.384-1.007,2.733-2.589,11.653-6.474c3.021-1.343,6.522-2.733,9.351-3.788l1.007,2.062C24.77,20.993,21.557,22.96,18.68,24.638z"
		/>
	<path fill="#E5E5E5" stroke="#E5E5E5" stroke-width="1.1371" stroke-miterlimit="10" d="M33.479,4.668l-9.56,4.811l2.095,4.163
		l9.56-4.811L33.479,4.668z M24.375,9.629l8.953-4.505l1.789,3.555l-8.953,4.505L24.375,9.629z"/>
	<path fill="#E5E5E5" stroke="#E5E5E5" stroke-width="1.1371" stroke-miterlimit="10" d="M39.317,16.558l-9.571,4.811l2.078,4.156
		l9.626-4.813L39.317,16.558z M30.202,21.521l8.967-4.508l1.822,3.549l-9.015,4.508L30.202,21.521z"/>
	<path fill="#E5E5E5" stroke="#E5E5E5" stroke-width="1.1371" stroke-miterlimit="10" d="M43.527,21.543l-0.008-0.018l-0.197-0.345
		c-0.293-0.544-0.868-0.896-1.464-0.896c-0.255,0-0.498,0.061-0.714,0.178l-9.264,4.656c-0.381,0.205-0.668,0.54-0.807,0.943
		c-0.145,0.42-0.112,0.861,0.098,1.251l0.188,0.328c0.293,0.544,0.868,0.896,1.464,0.896c0.255,0,0.498-0.061,0.714-0.178
		l9.245-4.647C43.566,23.35,43.893,22.397,43.527,21.543z M42.64,23.403l-9.255,4.652c-0.623,0.336-1.391,0.048-1.726-0.575
		l-0.192-0.336c-0.336-0.623-0.048-1.391,0.575-1.726l9.255-4.652c0.623-0.336,1.391-0.048,1.726,0.575l0.192,0.336
		C43.503,22.348,43.263,23.115,42.64,23.403z"/>
	<path fill="#E5E5E5" stroke="#E5E5E5" stroke-width="1.1371" stroke-miterlimit="10" d="M34.159,2.905l-0.006-0.013L33.958,2.55
		c-0.293-0.544-0.868-0.896-1.464-0.896c-0.255,0-0.498,0.061-0.714,0.178l-9.264,4.656c-0.381,0.205-0.668,0.54-0.807,0.943
		c-0.145,0.42-0.112,0.861,0.098,1.251l0.188,0.328c0.293,0.544,0.868,0.896,1.464,0.896c0.255,0,0.498-0.061,0.714-0.178
		l9.264-4.656C34.211,4.656,34.528,3.703,34.159,2.905z M33.275,4.773L24.02,9.425c-0.623,0.336-1.391,0.048-1.726-0.575
		l-0.192-0.336c-0.336-0.623-0.048-1.391,0.575-1.726l9.255-4.652c0.623-0.336,1.391-0.048,1.726,0.575l0.192,0.336
		C34.138,3.67,33.899,4.438,33.275,4.773z"/>
	<path fill="#E5E5E5" stroke="#E5E5E5" stroke-width="1.1371" stroke-miterlimit="10" d="M40.132,14.65l-2.637-5.226
		c-0.289-0.578-0.89-0.952-1.532-0.952c-0.261,0-0.512,0.059-0.747,0.177l-9.063,4.555c-0.406,0.203-0.711,0.55-0.859,0.978
		c-0.149,0.432-0.12,0.894,0.084,1.301l2.637,5.226c0.289,0.578,0.89,0.952,1.532,0.952c0.261,0,0.512-0.059,0.747-0.177
		l9.063-4.555C40.202,16.507,40.549,15.484,40.132,14.65z M39.205,16.625l-9.063,4.556c-0.671,0.336-1.487,0.048-1.822-0.623
		l-2.637-5.227c-0.336-0.671-0.048-1.487,0.623-1.822l9.063-4.556c0.671-0.336,1.487-0.048,1.822,0.623l2.637,5.227
		C40.164,15.474,39.876,16.289,39.205,16.625z"/>
</g>
</svg>
