<?xml version="1.0" encoding="utf-8"?>
<!-- Generator: Adobe Illustrator 16.0.0, SVG Export Plug-In . SVG Version: 6.00 Build 0)  -->
<!DOCTYPE svg PUBLIC "-//W3C//DTD SVG 1.1//EN" "http://www.w3.org/Graphics/SVG/1.1/DTD/svg11.dtd">
<svg version="1.1" id="Layer_1" xmlns="http://www.w3.org/2000/svg" xmlns:xlink="http://www.w3.org/1999/xlink" x="0px" y="0px"
	 width="52.957px" height="100px" viewBox="0 9.01 52.957 100" enable-background="new 0 9.01 52.957 100" xml:space="preserve">
<g>
	<path fill="#E5E5E5" d="M22.853,35.823c-3.374,0-6.118,2.745-6.118,6.118c0,3.372,2.746,6.118,6.118,6.118s6.119-2.746,6.119-6.118
		C28.972,38.568,26.227,35.823,22.853,35.823z M22.853,46.614c-2.577,0-4.673-2.097-4.673-4.673c0-2.577,2.096-4.672,4.673-4.672
		s4.672,2.095,4.672,4.672C27.525,44.517,25.431,46.614,22.853,46.614z"/>
	<path fill="#E5E5E5" d="M31.332,15.01c-10.173,0-18.45,8.276-18.45,18.451c0,2.117,0.358,4.196,1.062,6.178
		c-0.19,0.734-0.292,1.508-0.292,2.302c0,2.277,0.833,4.365,2.208,5.974l-1.484,1.483l-0.034-0.033c-0.583-0.583-1.53-0.583-2.111,0
		l-7.389,7.389c-0.583,0.582-0.583,1.529,0,2.111l1.09,1.089c0.291,0.292,0.673,0.438,1.056,0.438c0.382,0,0.765-0.146,1.056-0.438
		l7.389-7.389c0.583-0.582,0.583-1.529,0-2.111l-0.034-0.034l1.484-1.483c1.607,1.375,3.694,2.207,5.972,2.207
		c0.795,0,1.566-0.1,2.302-0.292c1.982,0.704,4.06,1.062,6.178,1.062c10.175,0,18.451-8.276,18.451-18.45S41.506,15.01,31.332,15.01
		z M7.02,58.932c-0.019,0.019-0.05,0.019-0.068,0l-1.089-1.09c-0.019-0.018-0.019-0.05,0-0.067l5.495-5.496l1.158,1.158L7.02,58.932
		z M14.408,51.543l-0.871,0.872l-1.158-1.159l0.871-0.87c0.01-0.009,0.022-0.016,0.035-0.016c0.012,0,0.024,0.007,0.034,0.016
		l1.09,1.09C14.428,51.494,14.428,51.524,14.408,51.543z M46.041,41.988h-5.164c0.72-2.392,1.13-5.044,1.188-7.805h6.256
		C48.204,37.018,47.388,39.674,46.041,41.988z M16.624,24.934h5.164c-0.72,2.392-1.129,5.046-1.189,7.806h-6.256
		C14.461,29.905,15.277,27.248,16.624,24.934z M22.043,32.74c0.064-2.783,0.497-5.443,1.256-7.806h7.311v7.806H22.043z
		 M32.056,23.488v-6.98c2.138,0.307,4.15,1.975,5.733,4.773c0.389,0.689,0.742,1.428,1.056,2.207H32.056z M39.366,24.934
		c0.76,2.361,1.192,5.022,1.256,7.806h-8.566v-7.806H39.366z M30.609,16.508v6.98H23.82c0.313-0.779,0.665-1.518,1.055-2.207
		C26.458,18.482,28.472,16.815,30.609,16.508z M30.609,34.183v2.811c-0.723-1.126-1.683-2.089-2.812-2.811H30.609z M28.179,49.441
		c0.965-0.688,1.791-1.556,2.431-2.556v3.529C29.78,50.296,28.965,49.969,28.179,49.441z M32.056,50.415v-6.98h6.789
		c-0.313,0.78-0.667,1.519-1.056,2.207C36.208,48.44,34.193,50.108,32.056,50.415z M32.056,41.988v-7.805h8.565
		c-0.065,2.783-0.497,5.444-1.257,7.805H32.056z M42.068,32.74c-0.062-2.759-0.471-5.414-1.19-7.806h5.164
		c1.346,2.313,2.162,4.971,2.28,7.806H42.068z M45.1,23.488h-4.707c-0.387-1.038-0.836-2.018-1.345-2.917
		c-0.751-1.328-1.6-2.435-2.521-3.303C40.004,18.385,42.996,20.594,45.1,23.488z M26.139,17.268
		c-0.921,0.868-1.77,1.973-2.521,3.303c-0.51,0.901-0.959,1.879-1.345,2.917h-4.706C19.669,20.594,22.661,18.385,26.139,17.268z
		 M14.341,34.183h3.565c-1.287,0.824-2.356,1.96-3.102,3.299C14.544,36.405,14.389,35.301,14.341,34.183z M15.097,41.941
		c0-4.277,3.48-7.758,7.757-7.758s7.756,3.48,7.756,7.758c0,4.276-3.479,7.756-7.756,7.756S15.097,46.217,15.097,41.941z
		 M36.527,49.655c0.921-0.867,1.77-1.973,2.521-3.303c0.51-0.9,0.958-1.88,1.345-2.918H45.1
		C42.996,46.329,40.004,48.538,36.527,49.655z"/>
</g>
</svg>
