<?xml version="1.0" encoding="iso-8859-1"?>
<!-- Generator: Adobe Illustrator 17.1.0, SVG Export Plug-In . SVG Version: 6.00 Build 0)  -->
<!DOCTYPE svg PUBLIC "-//W3C//DTD SVG 1.1//EN" "http://www.w3.org/Graphics/SVG/1.1/DTD/svg11.dtd">
<svg version="1.1" id="Layer_1" xmlns="http://www.w3.org/2000/svg" xmlns:xlink="http://www.w3.org/1999/xlink" x="0px" y="0px"
	 width="67.333px" height="50.625px" viewBox="0 0 67.333 50.625" enable-background="new 0 0 67.333 50.625" xml:space="preserve">
<g>
	<path fill="#E5E5E5" d="M57.994,9.288h-3.281V9.172c0-2.03-1.651-3.681-3.681-3.681H7.124c-2.03,0-3.681,1.651-3.681,3.681V42.74
		c0,1.797,1.462,3.26,3.26,3.26h51.291c2.03,0,3.681-1.651,3.681-3.681V12.97C61.675,10.94,60.024,9.288,57.994,9.288z
		 M6.703,43.468c-0.401,0-0.728-0.327-0.728-0.728V9.172c0-0.634,0.516-1.149,1.149-1.149h43.907c0.634,0,1.149,0.516,1.149,1.149
		v33.147c0,0.401,0.065,0.788,0.184,1.149L6.703,43.468L6.703,43.468z M59.143,42.319c0,0.634-0.516,1.149-1.149,1.149h-2.132
		c-0.634,0-1.149-0.516-1.149-1.149V11.82h3.281c0.634,0,1.149,0.516,1.149,1.149L59.143,42.319L59.143,42.319z"/>
	<path fill="#E5E5E5" d="M47.28,21.504H11.518c-0.699,0-1.266,0.567-1.266,1.266c0,0.699,0.567,1.266,1.266,1.266H47.28
		c0.699,0,1.266-0.567,1.266-1.266C48.546,22.071,47.98,21.504,47.28,21.504z"/>
	<path fill="#E5E5E5" d="M18.639,18.973H40.16c0.699,0,1.266-0.567,1.266-1.266v-5.443c0-0.699-0.567-1.266-1.266-1.266H18.639
		c-0.699,0-1.266,0.567-1.266,1.266v5.443C17.373,18.406,17.94,18.973,18.639,18.973z M19.905,13.529h18.989v2.912H19.905
		L19.905,13.529L19.905,13.529z"/>
	<path fill="#E5E5E5" d="M22.875,26.6H11.518c-0.699,0-1.266,0.567-1.266,1.266v11.33c0,0.699,0.567,1.266,1.266,1.266h11.357
		c0.699,0,1.266-0.567,1.266-1.266v-11.33C24.141,27.167,23.574,26.6,22.875,26.6z M21.609,37.93h-8.825v-8.798h8.825V37.93z"/>
	<path fill="#E5E5E5" d="M47.28,27.201H33.825c-0.699,0-1.266,0.567-1.266,1.266c0,0.699,0.567,1.266,1.266,1.266H47.28
		c0.699,0,1.266-0.567,1.266-1.266C48.546,27.768,47.98,27.201,47.28,27.201z"/>
	<path fill="#E5E5E5" d="M28.888,29.733h0.348c0.699,0,1.266-0.567,1.266-1.266c0-0.699-0.567-1.266-1.266-1.266h-0.348
		c-0.699,0-1.266,0.567-1.266,1.266C27.622,29.166,28.189,29.733,28.888,29.733z"/>
	<path fill="#E5E5E5" d="M47.28,32.265h-0.079c-0.699,0-1.266,0.567-1.266,1.266s0.567,1.266,1.266,1.266h0.079
		c0.699,0,1.266-0.567,1.266-1.266S47.98,32.265,47.28,32.265z"/>
	<path fill="#E5E5E5" d="M28.888,34.797H42.94c0.699,0,1.266-0.567,1.266-1.266s-0.567-1.266-1.266-1.266H28.888
		c-0.699,0-1.266,0.567-1.266,1.266S28.189,34.797,28.888,34.797z"/>
	<path fill="#E5E5E5" d="M47.28,37.328H28.888c-0.699,0-1.266,0.567-1.266,1.266c0,0.699,0.567,1.266,1.266,1.266H47.28
		c0.699,0,1.266-0.567,1.266-1.266C48.546,37.895,47.98,37.328,47.28,37.328z"/>
</g>
</svg>
