<?xml version="1.0" encoding="utf-8"?>
<!-- Generator: Adobe Illustrator 16.0.0, SVG Export Plug-In . SVG Version: 6.00 Build 0)  -->
<!DOCTYPE svg PUBLIC "-//W3C//DTD SVG 1.1//EN" "http://www.w3.org/Graphics/SVG/1.1/DTD/svg11.dtd">
<svg version="1.1" id="Слой_1" xmlns="http://www.w3.org/2000/svg" xmlns:xlink="http://www.w3.org/1999/xlink" x="0px" y="0px"
	 width="32px" height="36.917px" viewBox="0 0 32 36.917" enable-background="new 0 0 32 36.917" xml:space="preserve">
<g id="Chevron_Down_Circle">
	<path fill="#FFFFFF" d="M16,4.917c-8.836,0-16,7.163-16,16c0,8.836,7.164,16,16,16c8.837,0,16-7.164,16-16
		C32,12.08,24.837,4.917,16,4.917z M16,34.917c-7.72,0-14-6.28-14-14s6.28-14,14-14c7.721,0,14.031,6.28,14.031,14
		S23.721,34.917,16,34.917z"/>
	<path fill="#FFFFFF" d="M22.3,17.311l-6.285,6.194L9.73,17.309c-0.394-0.391-1.034-0.391-1.429,0c-0.394,0.392-0.394,1.024,0,1.415
		l6.999,6.899c0.384,0.38,1.044,0.381,1.429,0l7-6.899c0.394-0.391,0.394-1.023,0-1.413C23.334,16.92,22.695,16.92,22.3,17.311z"/>
</g>
</svg>
