<?xml version="1.0" encoding="utf-8"?>
<!-- Generator: Adobe Illustrator 16.0.0, SVG Export Plug-In . SVG Version: 6.00 Build 0)  -->
<!DOCTYPE svg PUBLIC "-//W3C//DTD SVG 1.1//EN" "http://www.w3.org/Graphics/SVG/1.1/DTD/svg11.dtd">
<svg version="1.1" id="Layer_1" xmlns="http://www.w3.org/2000/svg" xmlns:xlink="http://www.w3.org/1999/xlink" x="0px" y="0px"
	 width="36.059px" height="48.6px" viewBox="0 0 36.059 48.6" enable-background="new 0 0 36.059 48.6" xml:space="preserve">
<g>
	<path fill="#E5E5E5" stroke="#E5E5E5" stroke-width="0.5" stroke-miterlimit="10" d="M31.319,4.948H4.979
		c-1.067,0-1.935,0.866-1.935,1.933v35.558c0,1.066,0.868,1.934,1.935,1.934h20.413c0.163,0,0.318-0.065,0.436-0.181l7.244-7.243
		c0.114-0.116,0.179-0.271,0.179-0.435V6.881C33.251,5.814,32.384,4.948,31.319,4.948z M26.01,42.266v-4.436
		c0-0.387,0.312-0.699,0.697-0.699h4.436L26.01,42.266z M32.017,35.896h-5.31c-1.065,0-1.933,0.867-1.933,1.934v5.31H4.979
		c-0.386,0-0.699-0.313-0.699-0.701V6.881c0-0.386,0.313-0.7,0.699-0.7h26.34c0.384,0,0.698,0.314,0.698,0.7V35.896z"/>
	<path fill="#E5E5E5" stroke="#E5E5E5" stroke-width="0.5" stroke-miterlimit="10" d="M8.929,11.448h2.016v5.968
		c0,0.342,0.276,0.617,0.618,0.617c0.341,0,0.618-0.275,0.618-0.617v-5.968h2.017c0.341,0,0.618-0.275,0.618-0.616
		c0-0.342-0.276-0.617-0.618-0.617H8.929c-0.341,0-0.617,0.275-0.617,0.617C8.312,11.173,8.589,11.448,8.929,11.448z"/>
	<path fill="#E5E5E5" stroke="#E5E5E5" stroke-width="0.5" stroke-miterlimit="10" d="M14.678,18.008
		c0.327,0.098,0.671-0.088,0.768-0.414l0.262-0.877h3.561l0.263,0.877c0.081,0.268,0.324,0.44,0.594,0.44
		c0.057,0,0.116-0.01,0.174-0.026c0.327-0.098,0.515-0.442,0.415-0.769l-1.834-6.116c-0.164-0.543-0.654-0.908-1.223-0.908h-0.336
		c-0.566,0-1.057,0.365-1.221,0.908l-1.833,6.116C14.165,17.566,14.351,17.911,14.678,18.008z M17.281,11.48
		c0.007-0.019,0.022-0.03,0.04-0.03h0.336c0.02,0,0.035,0.013,0.041,0.03l1.202,4.004H16.08L17.281,11.48z"/>
	<path fill="#E5E5E5" stroke="#E5E5E5" stroke-width="0.5" stroke-miterlimit="10" d="M27.214,17.063l-2.057-2.939l2.057-2.938
		c0.194-0.279,0.127-0.664-0.151-0.86c-0.28-0.195-0.663-0.126-0.857,0.153l-1.8,2.569l-1.8-2.569
		c-0.196-0.28-0.582-0.348-0.86-0.153c-0.28,0.196-0.347,0.581-0.152,0.86l2.057,2.938l-2.057,2.939
		c-0.194,0.279-0.128,0.664,0.152,0.858c0.108,0.075,0.232,0.113,0.354,0.113c0.194,0,0.386-0.092,0.508-0.264l1.8-2.57l1.8,2.57
		c0.118,0.171,0.311,0.264,0.504,0.264c0.121,0,0.246-0.038,0.354-0.113C27.341,17.727,27.408,17.343,27.214,17.063z"/>
	<path fill="#E5E5E5" stroke="#E5E5E5" stroke-width="0.5" stroke-miterlimit="10" d="M7.613,22.644h1.316
		c0.341,0,0.618-0.275,0.618-0.617c0-0.341-0.276-0.616-0.618-0.616H7.613c-0.342,0-0.617,0.275-0.617,0.616
		C6.995,22.369,7.271,22.644,7.613,22.644z"/>
	<path fill="#E5E5E5" stroke="#E5E5E5" stroke-width="0.5" stroke-miterlimit="10" d="M7.613,25.278h1.316
		c0.341,0,0.618-0.275,0.618-0.617c0-0.341-0.276-0.616-0.618-0.616H7.613c-0.342,0-0.617,0.275-0.617,0.616
		C6.995,25.003,7.271,25.278,7.613,25.278z"/>
	<path fill="#E5E5E5" stroke="#E5E5E5" stroke-width="0.5" stroke-miterlimit="10" d="M7.613,27.913h1.316
		c0.341,0,0.618-0.275,0.618-0.617c0-0.343-0.276-0.616-0.618-0.616H7.613c-0.342,0-0.617,0.273-0.617,0.616
		C6.995,27.637,7.271,27.913,7.613,27.913z"/>
	<path fill="#E5E5E5" stroke="#E5E5E5" stroke-width="0.5" stroke-miterlimit="10" d="M28.683,21.408h-1.315
		c-0.342,0-0.616,0.277-0.616,0.618c0,0.342,0.274,0.617,0.616,0.617h1.315c0.341,0,0.616-0.275,0.616-0.617
		C29.299,21.685,29.024,21.408,28.683,21.408z"/>
	<path fill="#E5E5E5" stroke="#E5E5E5" stroke-width="0.5" stroke-miterlimit="10" d="M28.683,24.044h-1.315
		c-0.342,0-0.616,0.275-0.616,0.615c0,0.343,0.274,0.618,0.616,0.618h1.315c0.341,0,0.616-0.275,0.616-0.618
		C29.299,24.319,29.024,24.044,28.683,24.044z"/>
	<path fill="#E5E5E5" stroke="#E5E5E5" stroke-width="0.5" stroke-miterlimit="10" d="M28.683,26.678h-1.315
		c-0.342,0-0.616,0.273-0.616,0.616c0,0.342,0.274,0.617,0.616,0.617h1.315c0.341,0,0.616-0.275,0.616-0.617
		C29.299,26.952,29.024,26.678,28.683,26.678z"/>
	<path fill="#E5E5E5" stroke="#E5E5E5" stroke-width="0.5" stroke-miterlimit="10" d="M19.464,21.408h-7.901
		c-0.342,0-0.618,0.277-0.618,0.618c0,0.342,0.276,0.617,0.618,0.617h7.901c0.341,0,0.618-0.275,0.618-0.617
		C20.082,21.685,19.805,21.408,19.464,21.408z"/>
	<path fill="#E5E5E5" stroke="#E5E5E5" stroke-width="0.5" stroke-miterlimit="10" d="M11.563,25.278h5.267
		c0.342,0,0.619-0.275,0.619-0.617c0-0.341-0.277-0.616-0.619-0.616h-5.267c-0.342,0-0.618,0.275-0.618,0.616
		C10.945,25.003,11.221,25.278,11.563,25.278z"/>
	<path fill="#E5E5E5" stroke="#E5E5E5" stroke-width="0.5" stroke-miterlimit="10" d="M20.082,27.295
		c0-0.343-0.277-0.616-0.618-0.616h-7.901c-0.342,0-0.618,0.273-0.618,0.616c0,0.342,0.276,0.617,0.618,0.617h7.901
		C19.805,27.913,20.082,27.635,20.082,27.295z"/>
	<path fill="#E5E5E5" stroke="#E5E5E5" stroke-width="0.5" stroke-miterlimit="10" d="M10.945,33.344
		c0,0.342,0.276,0.618,0.618,0.618c0.341,0,0.618-0.276,0.618-0.618c0-0.984-0.829-1.785-1.976-2v-0.099
		c0-0.341-0.274-0.616-0.618-0.616c-0.342,0-0.615,0.275-0.615,0.616v0.099c-1.147,0.215-1.977,1.016-1.977,2
		c0,1.376,1.099,1.955,1.977,2.286v2.145c-0.458-0.147-0.742-0.448-0.742-0.726c0-0.341-0.276-0.618-0.618-0.618
		c-0.342,0-0.617,0.277-0.617,0.618c0,0.984,0.828,1.785,1.977,2v0.098c0,0.342,0.273,0.618,0.615,0.618
		c0.343,0,0.618-0.276,0.618-0.618v-0.098c1.146-0.215,1.976-1.016,1.976-2c0-1.375-1.099-1.955-1.976-2.286v-2.146
		C10.66,32.765,10.945,33.066,10.945,33.344z M8.97,34.282c-0.615-0.3-0.741-0.563-0.741-0.938c0-0.277,0.284-0.578,0.741-0.727
		V34.282z M10.945,37.049c0,0.277-0.284,0.578-0.74,0.726v-1.667C10.821,36.409,10.945,36.674,10.945,37.049z"/>
	<path fill="#E5E5E5" stroke="#E5E5E5" stroke-width="0.5" stroke-miterlimit="10" d="M14.198,31.945
		c-0.342,0-0.618,0.274-0.618,0.616s0.276,0.618,0.618,0.618h4.608c0.343,0,0.616-0.276,0.616-0.618s-0.273-0.616-0.616-0.616
		H14.198z"/>
	<path fill="#E5E5E5" stroke="#E5E5E5" stroke-width="0.5" stroke-miterlimit="10" d="M16.83,37.214h-2.633
		c-0.342,0-0.618,0.276-0.618,0.617s0.276,0.617,0.618,0.617h2.633c0.342,0,0.619-0.276,0.619-0.617S17.172,37.214,16.83,37.214z"/>
	<path fill="#E5E5E5" stroke="#E5E5E5" stroke-width="0.5" stroke-miterlimit="10" d="M20.781,37.214h-1.316
		c-0.341,0-0.615,0.276-0.615,0.617s0.274,0.617,0.615,0.617h1.316c0.342,0,0.618-0.276,0.618-0.617S21.122,37.214,20.781,37.214z"
		/>
	<path fill="#E5E5E5" stroke="#E5E5E5" stroke-width="0.5" stroke-miterlimit="10" d="M22.758,34.579h-8.562
		c-0.342,0-0.618,0.274-0.618,0.616s0.276,0.618,0.618,0.618h8.562c0.341,0,0.616-0.276,0.616-0.618S23.099,34.579,22.758,34.579z"
		/>
	<circle fill="#E5E5E5" stroke="#E5E5E5" stroke-width="0.5" stroke-miterlimit="10" cx="19.464" cy="24.661" r="0.617"/>
	<circle fill="#E5E5E5" stroke="#E5E5E5" stroke-width="0.5" stroke-miterlimit="10" cx="22.099" cy="24.661" r="0.617"/>
	<circle fill="#E5E5E5" stroke="#E5E5E5" stroke-width="0.5" stroke-miterlimit="10" cx="24.733" cy="24.661" r="0.617"/>
	<circle fill="#E5E5E5" stroke="#E5E5E5" stroke-width="0.5" stroke-miterlimit="10" cx="22.099" cy="22.026" r="0.618"/>
	<circle fill="#E5E5E5" stroke="#E5E5E5" stroke-width="0.5" stroke-miterlimit="10" cx="24.733" cy="22.026" r="0.618"/>
	<circle fill="#E5E5E5" stroke="#E5E5E5" stroke-width="0.5" stroke-miterlimit="10" cx="22.099" cy="27.296" r="0.617"/>
	<circle fill="#E5E5E5" stroke="#E5E5E5" stroke-width="0.5" stroke-miterlimit="10" cx="24.733" cy="27.296" r="0.617"/>
</g>
</svg>
