<?xml version="1.0" encoding="utf-8"?>
<!-- Generator: Adobe Illustrator 16.0.0, SVG Export Plug-In . SVG Version: 6.00 Build 0)  -->
<!DOCTYPE svg PUBLIC "-//W3C//DTD SVG 1.1//EN" "http://www.w3.org/Graphics/SVG/1.1/DTD/svg11.dtd">
<svg version="1.1" id="Layer_1" xmlns="http://www.w3.org/2000/svg" xmlns:xlink="http://www.w3.org/1999/xlink" x="0px" y="0px"
	 width="52.583px" height="100px" viewBox="0 -24.262 52.583 100" enable-background="new 0 -24.262 52.583 100"
	 xml:space="preserve">
<g>
	<path fill="#F9F9F9" d="M29.733,28.444L29.733,28.444c-3.901,0-7.732-1.003-11.116-2.902c-2.938,2.064-5.799,2.513-7.725,2.513
		c-0.611,0-1.211-0.045-1.785-0.138c-0.755-0.121-1.337-0.713-1.449-1.473c-0.111-0.757,0.274-1.483,0.959-1.816
		c1.85-0.917,3.082-2.681,3.84-4.173c-7.786-9.146-7.278-22.748,1.149-31.221c4.314-4.339,10.048-6.729,16.146-6.729
		c6.097,0,11.829,2.39,16.146,6.729C50.21-6.428,52.583-0.66,52.583,5.471c-0.004,6.133-2.383,11.9-6.705,16.239
		C41.561,26.051,35.828,28.444,29.733,28.444z M19.153,23.806c3.197,1.873,6.855,2.866,10.58,2.866
		c5.624,0,10.916-2.208,14.899-6.216c3.989-4.004,6.188-9.327,6.189-14.986c0.002-5.659-2.188-10.979-6.174-14.985
		c-3.98-4.004-9.272-6.21-14.896-6.21c-5.628,0-10.92,2.207-14.898,6.21c-7.865,7.911-8.254,20.655-0.89,29.02l0.634,0.543
		l-0.274,0.604c-0.842,1.842-2.381,4.3-4.932,5.568c0.478,0.021,0.984,0.063,1.506,0.063c1.761,0,4.429-0.438,7.149-2.51
		l0.598-0.459L19.153,23.806z M30.144,19.991c-0.871,0-1.634-0.053-2.329-0.16c-1.947-0.277-4.049-2.522-3.725-4.888
		c0.173-1.304,0.377-2.608,0.599-3.916c0.251-1.495,0.514-2.997,0.779-4.495l0.394-2.255c0.023-0.11,0.016-0.198,0.016-0.284
		c0-0.31-0.039-0.41-0.047-0.429l0,0c-0.012,0-0.109-0.053-0.412-0.095l-0.267-0.036c-0.335-0.043-0.714-0.092-1.083-0.224
		c-0.806-0.278-1.291-1.02-1.197-1.838c0.042-0.369,0.271-1.262,1.5-1.511c0.337-0.075,0.68-0.075,0.982-0.075h4.075
		c-0.731-0.214-1.393-0.611-1.937-1.166c-0.843-0.859-1.304-1.995-1.295-3.201c0.018-2.46,2.02-4.463,4.461-4.463h0.033
		c2.45,0.019,4.428,2.051,4.409,4.535c-0.016,2.027-1.35,3.744-3.162,4.293h0.195c1.338,0,2.196,0.801,2.242,2.094
		c0.015,0.813-0.115,1.577-0.247,2.292c-0.288,1.647-0.591,3.306-0.894,4.969l-0.56,3.061c-0.135,0.716-0.273,1.454-0.348,2.156
		c-0.028,0.265,0.004,0.581,0.094,0.924l0.084,0.116c0.363-0.045,0.727-0.171,1.164-0.332c0.115-0.043,0.233-0.117,0.35-0.182
		c0.216-0.126,0.434-0.246,0.669-0.331c0.536-0.212,1.288-0.054,1.676,0.44c0.281,0.359,0.375,0.841,0.26,1.318
		c-0.1,0.419-0.356,0.882-0.705,1.255c-1.556,1.581-3.35,2.39-5.353,2.422L30.144,19.991z M24.811,1.58
		c0.187,0.048,0.372,0.073,0.565,0.098l0.295,0.039C27.03,1.91,27.64,2.612,27.64,3.993c0,0.204-0.006,0.406-0.046,0.611
		l-0.393,2.237c-0.262,1.497-0.525,2.992-0.776,4.483c-0.215,1.286-0.416,2.574-0.589,3.86c-0.187,1.373,1.24,2.752,2.234,2.895
		c0.618,0.096,1.293,0.141,2.073,0.141l0.392-0.005c1.366-0.02,2.572-0.499,3.674-1.462c-0.503,0.185-0.96,0.337-1.46,0.4
		l-0.245,0.015c-0.877,0-1.581-0.572-1.794-1.454c-0.14-0.54-0.186-1.065-0.136-1.543c0.081-0.773,0.229-1.552,0.37-2.303L31.5,8.82
		c0.303-1.657,0.604-3.311,0.892-4.966c0.12-0.634,0.234-1.295,0.223-1.927c-0.011-0.248-0.015-0.37-0.483-0.37h-6.779
		C25.156,1.555,24.966,1.555,24.811,1.58z M30.659-8.159v0.886c-1.478,0-2.688,1.213-2.701,2.704
		c-0.005,0.729,0.273,1.419,0.789,1.943c0.513,0.525,1.199,0.815,1.929,0.822c1.465,0,2.65-1.22,2.661-2.72
		c0.012-1.504-1.183-2.739-2.658-2.75L30.659-8.159z"/>
</g>
</svg>
