<?xml version="1.0" encoding="utf-8"?>
<!-- Generator: Adobe Illustrator 16.0.0, SVG Export Plug-In . SVG Version: 6.00 Build 0)  -->
<!DOCTYPE svg PUBLIC "-//W3C//DTD SVG 1.1//EN" "http://www.w3.org/Graphics/SVG/1.1/DTD/svg11.dtd">
<svg version="1.1" id="Layer_1" xmlns="http://www.w3.org/2000/svg" xmlns:xlink="http://www.w3.org/1999/xlink" x="0px" y="0px"
	 width="35.5px" height="32px" viewBox="0 0 35.5 32" enable-background="new 0 0 35.5 32" xml:space="preserve">
<g transform="translate(576 192)">
	<path fill="#ED1C24" stroke="#ED1C24" stroke-miterlimit="10" d="M-574.349-168.067l5.431-5.354
		c0.808,1.241,1.878,2.296,3.136,3.093l-5.43,5.354c-0.867,0.854-2.272,0.854-3.137,0
		C-575.217-165.826-575.217-167.212-574.349-168.067z"/>
	<path fill="#ED1C24" stroke="#ED1C24" stroke-miterlimit="10" d="M-569.084-178.917c0-4.832,3.975-8.75,8.875-8.75
		c4.901,0,8.875,3.918,8.875,8.75c0,4.833-3.974,8.75-8.875,8.75C-565.109-170.166-569.084-174.084-569.084-178.917z
		 M-560.209-172.354c3.672,0,6.656-2.943,6.656-6.563c0-3.619-2.984-6.563-6.656-6.563c-3.671,0-6.656,2.944-6.656,6.563
		C-566.865-175.297-563.88-172.354-560.209-172.354z"/>
	<path fill="#ED1C24" stroke="#ED1C24" stroke-miterlimit="10" d="M-555.031-178.917h-1.479c0-2.01-1.659-3.646-3.699-3.646v-1.458
		C-557.354-184.021-555.031-181.729-555.031-178.917z"/>
</g>
</svg>
